<svg xmlns="http://www.w3.org/2000/svg" width="93.1" height="26" viewBox="680 191 93.1 26"><path fill="#4B4B4B" d="M736.702 208.178c-2.28 0-4.134-1.853-4.134-4.133s1.854-4.133 4.134-4.133 4.133 1.853 4.133 4.133-1.853 4.133-4.133 4.133zm0-11.173a7.027 7.027 0 000 14.053 7.027 7.027 0 000-14.053m15.573 3.374a3.633 3.633 0 00-3.64 3.626v6.653h-3.014v-13.266h3.014v2.04s1.28-2.04 3.92-2.04h.92v2.973h-1.2m-30.506-2.96l2.28 9.187 2.506-9.187h2.987l-3.853 13.267h-2.987l-2.36-9.24-2.36 9.24h-2.987l-3.853-13.267h2.987l2.506 9.187 2.28-9.187h2.854m40.599 6.12a7.026 7.026 0 003.586-6.12h-3.013c0 2.214-1.8 4.013-4.013 4.013h-.4v-10.413h-3.014v19.667h3.014v-6.254h.36c.293 0 .68.2.853.427l4.267 5.813h3.613l-5.253-7.133"/><path fill="#6FDA44" d="M703.982 207.512c-1.426 0-2.76-.6-3.973-1.587l.293-1.387.014-.053c.266-1.48 1.093-3.946 3.666-3.946 1.92 0 3.494 1.56 3.494 3.493a3.502 3.502 0 01-3.494 3.48zm0-10.507c-3.28 0-5.826 2.134-6.853 5.64-1.573-2.373-2.773-5.213-3.466-7.6h-3.547v9.187a3.286 3.286 0 01-6.573 0v-9.187h-3.533v9.187c0 3.76 3.053 6.84 6.813 6.84s6.813-3.08 6.813-6.84v-1.534c.68 1.427 1.52 2.88 2.547 4.16l-2.16 10.16h3.613l1.573-7.373c1.373.88 2.947 1.44 4.76 1.44 3.867 0 7.027-3.173 7.027-7.04 0-3.88-3.147-7.04-7.014-7.04"/><path fill="#4A4A4A" d="M768.234 197.725h-1v-.306h2.347v.306h-1v2.68h-.347v-2.68m1.987-.306h.346l1.094 1.64 1.093-1.64h.347v3h-.334v-2.427l-1.093 1.6h-.013l-1.094-1.6v2.427h-.333v-3"/></svg>