<svg version="1.1" xmlns="http://www.w3.org/2000/svg" width="32" height="32" viewBox="0 0 32 32">
  <title>et</title>
  <style>
    #et { fill: #906 }

    @media (prefers-color-scheme: dark) {
    #et { stroke: white; fill: white }
    }
  </style>
  <path id="et"
    d="M15.392 4.629c-0.003 0.003-0.444 0.012-0.98 0.024s-1.076 0.024-1.199 0.033c-0.716 0.036-0.878 0.045-1.109 0.060-0.141 0.012-0.312 0.024-0.378 0.030-0.069 0.006-0.243 0.021-0.39 0.030-0.147 0.012-0.321 0.024-0.387 0.033-0.279 0.027-0.725 0.075-0.794 0.087-0.078 0.012-0.255 0.033-0.48 0.060-0.075 0.009-0.162 0.021-0.195 0.027s-0.135 0.021-0.225 0.033c-0.090 0.012-0.192 0.027-0.225 0.033-0.033 0.009-0.108 0.021-0.165 0.030-0.198 0.027-1.094 0.192-1.289 0.234-0.719 0.156-1.669 0.438-2.038 0.605-1.115 0.512-1.699 0.995-2.299 1.9-0.213 0.324-0.441 0.827-0.459 1.019-0.003 0.009-0.015 0.069-0.030 0.135-0.018 0.066-0.039 0.186-0.048 0.27-0.009 0.081-0.021 0.159-0.027 0.168-0.054 0.084-0.081 1.681-0.036 2.14 0.072 0.74 0.234 1.325 0.495 1.783 0.192 0.336 0.524 0.788 0.791 1.079 0.366 0.399 1.13 0.857 1.897 1.136 0.15 0.054 0.297 0.111 0.33 0.123 0.408 0.162 1.594 0.438 2.503 0.584 0.33 0.054 0.51 0.081 0.599 0.090 0.057 0.009 0.147 0.021 0.195 0.030 0.051 0.006 0.159 0.021 0.24 0.030 0.084 0.009 0.183 0.021 0.225 0.030 0.042 0.006 0.156 0.021 0.255 0.030 0.243 0.024 0.279 0.030 0.303 0.054 0.012 0.012 0.024 2.392 0.024 5.29 0.003 4.981 0.006 5.272 0.057 5.35 0.027 0.045 0.087 0.105 0.132 0.132 0.078 0.051 0.363 0.054 5.284 0.054 4.915 0 5.206-0.003 5.284-0.054 0.045-0.027 0.102-0.096 0.132-0.15 0.048-0.090 0.051-0.45 0.051-5.365 0-2.895 0.009-5.266 0.018-5.269 0.009 0 0.042-0.006 0.075-0.012 0.033-0.009 0.129-0.021 0.213-0.030 0.084-0.006 0.201-0.021 0.255-0.027 0.057-0.009 0.171-0.024 0.252-0.033 0.084-0.009 0.183-0.021 0.225-0.030 0.042-0.006 0.144-0.021 0.225-0.030 0.084-0.009 0.171-0.024 0.195-0.030s0.114-0.018 0.195-0.030c0.207-0.024 0.935-0.156 1.259-0.228 2.062-0.453 3.261-1.025 3.965-1.894 0.15-0.186 0.243-0.318 0.486-0.68 0.102-0.153 0.276-0.554 0.348-0.806 0.162-0.554 0.207-1.007 0.207-2.041 0-0.899-0.018-1.148-0.123-1.768-0.027-0.153-0.138-0.465-0.24-0.668-0.132-0.267-0.288-0.497-0.575-0.854-0.294-0.363-0.575-0.62-0.98-0.89-0.665-0.444-1.337-0.722-2.368-0.989-0.48-0.123-0.779-0.189-1.244-0.273-0.057-0.012-0.132-0.024-0.165-0.030-0.354-0.066-0.327-0.060-0.599-0.102-0.132-0.018-0.273-0.039-0.315-0.048-0.081-0.015-0.447-0.063-0.659-0.090-0.075-0.009-0.168-0.021-0.21-0.027s-0.156-0.021-0.255-0.030c-0.099-0.012-0.228-0.024-0.285-0.030-0.228-0.027-0.647-0.063-1.019-0.090-0.141-0.009-0.321-0.024-0.405-0.030-0.15-0.012-0.656-0.039-1.109-0.060-0.611-0.030-3.387-0.075-3.411-0.057zM18.518 5.582c0.189 0.009 0.501 0.024 0.689 0.033 0.354 0.018 0.659 0.036 0.974 0.060 0.099 0.009 0.288 0.021 0.42 0.030 0.369 0.027 0.671 0.057 0.944 0.090 0.057 0.009 0.186 0.024 0.285 0.033s0.204 0.024 0.237 0.030c0.030 0.006 0.132 0.018 0.225 0.027 0.093 0.012 0.189 0.024 0.213 0.030s0.105 0.021 0.18 0.030c0.231 0.033 0.749 0.129 1.124 0.21 1.43 0.309 2.401 0.728 3.267 1.421 0.977 0.776 1.379 1.687 1.376 3.12 0 1.214-0.297 2.083-0.932 2.745-0.614 0.641-1.451 1.136-2.497 1.475-0.36 0.117-1.247 0.345-1.472 0.378-0.060 0.009-0.126 0.024-0.15 0.030-0.024 0.009-0.096 0.024-0.162 0.033s-0.234 0.036-0.375 0.060c-0.141 0.024-0.315 0.051-0.39 0.060-0.123 0.015-0.243 0.030-0.45 0.060-0.042 0.006-0.15 0.018-0.24 0.030-0.090 0.009-0.213 0.024-0.27 0.030-0.159 0.018-0.384 0.042-0.59 0.060-0.105 0.009-0.267 0.021-0.36 0.030-0.255 0.021-0.521 0.039-0.893 0.060-0.18 0.012-0.405 0.024-0.495 0.030-0.521 0.036-1.711 0.057-3.147 0.057-1.681 0-2.488-0.021-3.507-0.087-0.174-0.012-0.381-0.024-0.465-0.030-0.222-0.012-0.614-0.045-0.734-0.060-0.057-0.009-0.198-0.021-0.315-0.030-0.114-0.009-0.243-0.024-0.285-0.030s-0.204-0.027-0.36-0.045c-0.36-0.042-1.187-0.168-1.439-0.225-0.042-0.009-0.177-0.036-0.3-0.060-0.833-0.162-1.9-0.483-2.637-0.794-1.1-0.462-1.648-0.923-2.047-1.723-0.435-0.872-0.548-2.239-0.276-3.312 0.186-0.737 0.471-1.184 1.151-1.798 0.213-0.192 1.166-0.809 1.253-0.809 0.006 0 0.090-0.036 0.183-0.078 0.486-0.225 1.508-0.531 2.17-0.653 0.039-0.006 0.183-0.033 0.324-0.057 0.141-0.027 0.297-0.054 0.345-0.060 0.051-0.009 0.177-0.030 0.285-0.045 0.108-0.018 0.264-0.042 0.345-0.051 0.084-0.012 0.183-0.024 0.225-0.030s0.162-0.021 0.27-0.030c0.108-0.012 0.216-0.027 0.243-0.030 0.027-0.006 0.156-0.018 0.285-0.030 0.129-0.009 0.279-0.024 0.327-0.030 0.051-0.006 0.213-0.018 0.36-0.030 0.15-0.009 0.318-0.024 0.375-0.030s0.267-0.021 0.465-0.030c0.198-0.009 0.429-0.024 0.51-0.030 0.084-0.006 0.447-0.021 0.809-0.030 0.363-0.012 0.662-0.024 0.668-0.030 0.018-0.015 3.899 0.009 4.262 0.027zM11.804 16.611c0.108 0.009 0.303 0.024 0.435 0.033s0.321 0.021 0.42 0.030c0.237 0.018 0.959 0.048 1.427 0.060 0.504 0.015 3.519 0.015 3.968 0 0.488-0.015 1.343-0.048 1.543-0.057 0.090-0.006 0.336-0.021 0.548-0.033l0.381-0.021v0.812c0 0.447-0.009 0.815-0.021 0.815-0.015 0.003-2.065 0.006-4.559 0.009-3.003 0.003-4.532-0.006-4.535-0.027-0.003-0.039-0.003-1.475 0-1.576 0.003-0.072 0.012-0.078 0.102-0.072 0.051 0.006 0.183 0.018 0.291 0.027zM19.86 19.177h0.665l-0.006 0.905-0.009 0.908-9.096 0.009v-0.066c-0.003-0.105-0.003-1.523-0.003-1.642l0.003-0.111 0.354-0.009c0.192-0.006 1.942-0.006 3.887-0.003s3.836 0.009 4.205 0.009zM20.526 22.818v0.914h-9.111l-0.003-0.084c-0.003-0.099-0.003-1.337 0-1.574l0.003-0.171h9.111v0.914zM20.526 25.552c0 0.845-0.003 0.908-0.051 0.911-0.063 0.003-8.85 0.003-8.985 0l-0.090-0.003 0.006-0.785c0.003-0.435 0.006-0.842 0.006-0.908l0.003-0.12h9.111v0.905zM8.654 7.38c-0.006 0.006-0.066 0.018-0.132 0.030-0.309 0.045-0.635 0.147-0.911 0.285-0.599 0.306-1.16 0.869-1.46 1.481-0.075 0.156-0.207 0.554-0.24 0.725-0.057 0.303-0.066 0.429-0.057 0.764 0.012 0.557 0.093 0.902 0.306 1.334 0.264 0.527 0.704 1.013 1.211 1.331 0.866 0.543 2.089 0.614 3.051 0.18 0.716-0.324 1.397-1.064 1.663-1.81 0.135-0.381 0.177-0.62 0.177-1.064 0.003-0.459-0.030-0.689-0.141-1.049-0.243-0.764-0.77-1.412-1.478-1.816-0.309-0.177-0.468-0.234-0.974-0.363-0.075-0.018-0.998-0.042-1.016-0.027zM9.58 8.327c0.587 0.123 1.187 0.578 1.502 1.151 0.333 0.596 0.363 1.43 0.075 2.053-0.306 0.665-0.89 1.139-1.6 1.301-0.273 0.063-0.848 0.045-1.118-0.033-0.423-0.129-0.77-0.339-1.058-0.641-0.489-0.516-0.68-1.106-0.602-1.852 0.102-0.998 0.965-1.87 1.978-2.005 0.21-0.030 0.617-0.015 0.824 0.027zM22.381 7.38c-0.006 0.006-0.066 0.018-0.132 0.027-1.127 0.156-2.143 1.016-2.518 2.128-0.114 0.345-0.162 0.701-0.15 1.16 0.009 0.42 0.018 0.477 0.093 0.749 0.306 1.115 1.229 2.005 2.347 2.266 0.677 0.156 1.481 0.087 2.089-0.183 0.405-0.18 0.905-0.575 1.208-0.956 0.171-0.213 0.234-0.318 0.375-0.605 0.258-0.534 0.351-1.136 0.273-1.825-0.108-0.986-0.755-1.918-1.675-2.416-0.201-0.108-0.647-0.282-0.647-0.252 0 0.009-0.033 0-0.075-0.015s-0.114-0.036-0.159-0.048c-0.093-0.021-1.007-0.048-1.028-0.030zM23.22 8.312c0.749 0.126 1.454 0.731 1.72 1.472 0.114 0.324 0.15 0.582 0.132 0.938-0.030 0.605-0.243 1.067-0.704 1.526-0.237 0.231-0.524 0.411-0.851 0.521-0.524 0.177-1.235 0.132-1.732-0.111-0.258-0.126-0.515-0.324-0.734-0.56-0.608-0.665-0.74-1.687-0.327-2.527 0.255-0.516 0.791-0.992 1.316-1.169 0.333-0.114 0.824-0.15 1.181-0.090zM14.603 13.036c-0.219 0.045-0.312 0.171-0.315 0.429-0.003 0.189 0.045 0.303 0.162 0.39 0.084 0.063 0.12 0.063 1.484 0.072 1.286 0.006 1.409 0.003 1.505-0.045 0.132-0.066 0.21-0.219 0.21-0.408 0-0.186-0.066-0.324-0.189-0.396-0.090-0.054-0.171-0.057-1.433-0.060-0.734 0-1.376 0.006-1.424 0.018z"></path>
</svg>
