<svg version="1.1" xmlns="http://www.w3.org/2000/svg" x="0" y="0" width="93.1" height="26" viewBox="680 191 93.1 26" xml:space="preserve">
          <g transform="matrix(1.3333333,0,0,-1.3333333,0,408) scale(0.1)">
            <title>
              Upwork
            </title>
            <path fill="#4B4B4B" d="M5525.4,1498.7c-17.1,0-31,13.9-31,31s13.9,31,31,31c17.1,0,31-13.9,31-31 S5542.5,1498.7,5525.4,1498.7z M5525.4,1582.5c-29.1,0-52.7-23.6-52.7-52.7c0-29.1,23.6-52.7,52.7-52.7s52.7,23.6,52.7,52.7 C5578.1,1558.9,5554.5,1582.5,5525.4,1582.5"/>
            <path fill="#4B4B4B" d="M5642.2,1557.2c-15.1,0-27.3-12.2-27.3-27.2l0-49.9h-22.6v99.5h22.6v-15.3 c0,0,9.6,15.3,29.4,15.3h6.9v-22.3H5642.2"/>
            <path fill="#4B4B4B" d="M5413.4,1579.5l17.1-68.9l18.8,68.9h22.4l-28.9-99.5h-22.4l-17.7,69.3l-17.7-69.3h-22.4 l-28.9,99.5h22.4l18.8-68.9l17.1,68.9H5413.4"/>
            <path fill="#4B4B4B" d="M5717.9,1533.6c16,9,26.9,26.2,26.9,45.9h-22.6c0-16.6-13.5-30.1-30.1-30.1h-3v78.1h-22.6 V1480h22.6v46.9h2.7c2.2,0,5.1-1.5,6.4-3.2l32-43.6h27.1L5717.9,1533.6"/>
            <path fill="#6FDA44" d="M5280,1503.7c-10.7,0-20.7,4.5-29.8,11.9l2.2,10.4l0.1,0.4c2,11.1,8.2,29.6,27.5,29.6 c14.4,0,26.2-11.7,26.2-26.2C5306.1,1515.4,5294.4,1503.7,5280,1503.7z M5280,1582.5c-24.6,0-43.7-16-51.4-42.3 c-11.8,17.8-20.8,39.1-26,57H5176v-68.9c0-13.6-11.1-24.6-24.7-24.6c-13.6,0-24.6,11.1-24.6,24.6v68.9h-26.5v-68.9 c0-28.2,22.9-51.3,51.1-51.3c28.2,0,51.1,23.1,51.1,51.3v11.5c5.1-10.7,11.4-21.6,19.1-31.2l-16.2-76.2h27.1l11.8,55.3 c10.3-6.6,22.1-10.8,35.7-10.8c29,0,52.7,23.8,52.7,52.8C5332.6,1558.8,5309,1582.5,5280,1582.5"/>
            <path fill="#4A4A4A" d="M5761.9,1577.1h-7.5v2.3h17.6v-2.3h-7.5v-20.1h-2.6V1577.1"/>
            <path fill="#4A4A4A" d="M5776.8,1579.4h2.6l8.2-12.3l8.2,12.3h2.6v-22.5h-2.5v18.2l-8.2-12h-0.1l-8.2,12v-18.2h-2.5 V1579.4"/>
          </g>
        </svg>
